<mxfile host="Electron" modified="2023-10-16T16:04:13.534Z" agent="Mozilla/5.0 (Windows NT 10.0; Win64; x64) AppleWebKit/537.36 (KHTML, like Gecko) draw.io/21.4.0 Chrome/112.0.5615.204 Electron/24.5.1 Safari/537.36" etag="xLrdall9RUbPVN67XNaP" version="21.4.0" type="device">
  <diagram name="Page-1" id="_bJBE1ez3kFCPR49lAYT">
    <mxGraphModel dx="1295" dy="758" grid="1" gridSize="10" guides="1" tooltips="1" connect="1" arrows="1" fold="1" page="1" pageScale="1" pageWidth="850" pageHeight="1100" math="0" shadow="0">
      <root>
        <mxCell id="0" />
        <mxCell id="1" parent="0" />
        <mxCell id="AV-H8MOa8y1JzyoUnfCQ-1" value="Admin" style="shape=umlActor;verticalLabelPosition=bottom;verticalAlign=top;html=1;fontStyle=1;fillColor=none;" parent="1" vertex="1">
          <mxGeometry x="50" y="270" width="30" height="60" as="geometry" />
        </mxCell>
        <mxCell id="AV-H8MOa8y1JzyoUnfCQ-2" value="Đăng nhập dưới quyền Admin" style="ellipse;whiteSpace=wrap;html=1;fontStyle=1;fillColor=none;" parent="1" vertex="1">
          <mxGeometry x="80" y="380" width="240" height="60" as="geometry" />
        </mxCell>
        <mxCell id="AV-H8MOa8y1JzyoUnfCQ-3" value="Xem danh sách hóa đơn" style="ellipse;whiteSpace=wrap;html=1;fontStyle=1;fillColor=none;" parent="1" vertex="1">
          <mxGeometry x="240" y="100" width="160" height="40" as="geometry" />
        </mxCell>
        <mxCell id="AV-H8MOa8y1JzyoUnfCQ-4" value="Quản lý hóa đơn" style="ellipse;whiteSpace=wrap;html=1;fontStyle=1;fillColor=none;" parent="1" vertex="1">
          <mxGeometry x="240" y="180" width="160" height="40" as="geometry" />
        </mxCell>
        <mxCell id="AV-H8MOa8y1JzyoUnfCQ-5" value="Quản lý sản phẩm" style="ellipse;whiteSpace=wrap;html=1;fontStyle=1;fillColor=none;" parent="1" vertex="1">
          <mxGeometry x="240" y="260" width="160" height="40" as="geometry" />
        </mxCell>
        <mxCell id="AV-H8MOa8y1JzyoUnfCQ-6" value="Quản lý tài khoản" style="ellipse;whiteSpace=wrap;html=1;fontStyle=1;fillColor=none;" parent="1" vertex="1">
          <mxGeometry x="240" y="470" width="160" height="40" as="geometry" />
        </mxCell>
        <mxCell id="AV-H8MOa8y1JzyoUnfCQ-7" value="Thống kê Top sản phẩm, khách hàng, nhân viên" style="ellipse;whiteSpace=wrap;html=1;fontStyle=1;fillColor=none;" parent="1" vertex="1">
          <mxGeometry x="170" y="590" width="210" height="60" as="geometry" />
        </mxCell>
        <mxCell id="AV-H8MOa8y1JzyoUnfCQ-8" value="Tìm kiếm hóa đơn" style="ellipse;whiteSpace=wrap;html=1;fontStyle=1;fillColor=none;" parent="1" vertex="1">
          <mxGeometry x="550" y="90" width="160" height="40" as="geometry" />
        </mxCell>
        <mxCell id="AV-H8MOa8y1JzyoUnfCQ-10" value="Xuất dữ liệu hóa đơn" style="ellipse;whiteSpace=wrap;html=1;fontStyle=1;fillColor=none;" parent="1" vertex="1">
          <mxGeometry x="560" y="140" width="160" height="40" as="geometry" />
        </mxCell>
        <mxCell id="AV-H8MOa8y1JzyoUnfCQ-11" value="Xem danh sách sản phẩm" style="ellipse;whiteSpace=wrap;html=1;fontStyle=1;fillColor=none;" parent="1" vertex="1">
          <mxGeometry x="560" y="250" width="160" height="40" as="geometry" />
        </mxCell>
        <mxCell id="AV-H8MOa8y1JzyoUnfCQ-12" value="Cập nhật sản phẩm" style="ellipse;whiteSpace=wrap;html=1;fontStyle=1;fillColor=none;" parent="1" vertex="1">
          <mxGeometry x="560" y="300" width="160" height="40" as="geometry" />
        </mxCell>
        <mxCell id="AV-H8MOa8y1JzyoUnfCQ-13" value="Xóa sản phẩm" style="ellipse;whiteSpace=wrap;html=1;fontStyle=1;fillColor=none;" parent="1" vertex="1">
          <mxGeometry x="560" y="350" width="160" height="40" as="geometry" />
        </mxCell>
        <mxCell id="AV-H8MOa8y1JzyoUnfCQ-14" value="Thêm sản phẩm" style="ellipse;whiteSpace=wrap;html=1;fontStyle=1;fillColor=none;" parent="1" vertex="1">
          <mxGeometry x="560" y="400" width="160" height="40" as="geometry" />
        </mxCell>
        <mxCell id="AV-H8MOa8y1JzyoUnfCQ-16" value="Xem tài khoản theo danh sách" style="ellipse;whiteSpace=wrap;html=1;fontStyle=1;fillColor=none;" parent="1" vertex="1">
          <mxGeometry x="540" y="470" width="200" height="40" as="geometry" />
        </mxCell>
        <mxCell id="AV-H8MOa8y1JzyoUnfCQ-18" value="Thêm tài khoản" style="ellipse;whiteSpace=wrap;html=1;fontStyle=1;fillColor=none;" parent="1" vertex="1">
          <mxGeometry x="560" y="530" width="160" height="40" as="geometry" />
        </mxCell>
        <mxCell id="AV-H8MOa8y1JzyoUnfCQ-19" value="Xóa tài khoản" style="ellipse;whiteSpace=wrap;html=1;fontStyle=1;fillColor=none;" parent="1" vertex="1">
          <mxGeometry x="560" y="580" width="160" height="40" as="geometry" />
        </mxCell>
        <mxCell id="AV-H8MOa8y1JzyoUnfCQ-20" value="" style="endArrow=none;html=1;rounded=0;entryX=0.047;entryY=0.263;entryDx=0;entryDy=0;fillColor=none;entryPerimeter=0;" parent="1" target="AV-H8MOa8y1JzyoUnfCQ-2" edge="1">
          <mxGeometry width="50" height="50" relative="1" as="geometry">
            <mxPoint x="70" y="350" as="sourcePoint" />
            <mxPoint x="260" y="260" as="targetPoint" />
          </mxGeometry>
        </mxCell>
        <mxCell id="AV-H8MOa8y1JzyoUnfCQ-21" value="&amp;lt;&amp;lt;include&amp;gt;&amp;gt;" style="html=1;verticalAlign=bottom;labelBackgroundColor=none;endArrow=open;endFill=0;dashed=1;rounded=0;exitX=0;exitY=0.5;exitDx=0;exitDy=0;entryX=0;entryY=1;entryDx=0;entryDy=0;fillColor=none;" parent="1" source="AV-H8MOa8y1JzyoUnfCQ-7" target="AV-H8MOa8y1JzyoUnfCQ-2" edge="1">
          <mxGeometry x="-0.4981" y="20" width="160" relative="1" as="geometry">
            <mxPoint x="70" y="90" as="sourcePoint" />
            <mxPoint x="230" y="90" as="targetPoint" />
            <Array as="points">
              <mxPoint x="150" y="620" />
            </Array>
            <mxPoint as="offset" />
          </mxGeometry>
        </mxCell>
        <mxCell id="AV-H8MOa8y1JzyoUnfCQ-22" value="&amp;lt;&amp;lt;include&amp;gt;&amp;gt;" style="html=1;verticalAlign=bottom;labelBackgroundColor=none;endArrow=open;endFill=0;dashed=1;rounded=0;entryX=0.208;entryY=0.893;entryDx=0;entryDy=0;exitX=0;exitY=0.5;exitDx=0;exitDy=0;entryPerimeter=0;fillColor=none;" parent="1" source="AV-H8MOa8y1JzyoUnfCQ-6" target="AV-H8MOa8y1JzyoUnfCQ-2" edge="1">
          <mxGeometry x="-0.619" y="30" width="160" relative="1" as="geometry">
            <mxPoint x="230" y="470" as="sourcePoint" />
            <mxPoint x="390" y="470" as="targetPoint" />
            <Array as="points">
              <mxPoint x="160" y="490" />
            </Array>
            <mxPoint as="offset" />
          </mxGeometry>
        </mxCell>
        <mxCell id="AV-H8MOa8y1JzyoUnfCQ-23" value="&amp;lt;&amp;lt;include&amp;gt;&amp;gt;" style="html=1;verticalAlign=bottom;labelBackgroundColor=none;endArrow=open;endFill=0;dashed=1;rounded=0;entryX=0.345;entryY=0.027;entryDx=0;entryDy=0;entryPerimeter=0;exitX=0;exitY=0.5;exitDx=0;exitDy=0;fillColor=none;" parent="1" source="AV-H8MOa8y1JzyoUnfCQ-5" target="AV-H8MOa8y1JzyoUnfCQ-2" edge="1">
          <mxGeometry x="-0.7423" y="30" width="160" relative="1" as="geometry">
            <mxPoint x="70" y="200" as="sourcePoint" />
            <mxPoint x="230" y="200" as="targetPoint" />
            <Array as="points">
              <mxPoint x="190" y="280" />
            </Array>
            <mxPoint as="offset" />
          </mxGeometry>
        </mxCell>
        <mxCell id="AV-H8MOa8y1JzyoUnfCQ-24" value="&amp;lt;&amp;lt;include&amp;gt;&amp;gt;" style="html=1;verticalAlign=bottom;labelBackgroundColor=none;endArrow=open;endFill=0;dashed=1;rounded=0;exitX=0;exitY=0.5;exitDx=0;exitDy=0;fillColor=none;" parent="1" source="AV-H8MOa8y1JzyoUnfCQ-4" edge="1">
          <mxGeometry x="-0.7526" y="30" width="160" relative="1" as="geometry">
            <mxPoint x="130" y="140" as="sourcePoint" />
            <mxPoint x="150" y="380" as="targetPoint" />
            <Array as="points">
              <mxPoint x="180" y="200" />
            </Array>
            <mxPoint as="offset" />
          </mxGeometry>
        </mxCell>
        <mxCell id="AV-H8MOa8y1JzyoUnfCQ-25" value="&amp;lt;&amp;lt;extend&amp;gt;&amp;gt;" style="html=1;verticalAlign=bottom;labelBackgroundColor=none;endArrow=open;endFill=0;dashed=1;rounded=0;exitX=0.5;exitY=1;exitDx=0;exitDy=0;entryX=0.5;entryY=0;entryDx=0;entryDy=0;fillColor=none;" parent="1" source="AV-H8MOa8y1JzyoUnfCQ-3" target="AV-H8MOa8y1JzyoUnfCQ-4" edge="1">
          <mxGeometry y="30" width="160" relative="1" as="geometry">
            <mxPoint x="420" y="140" as="sourcePoint" />
            <mxPoint x="580" y="140" as="targetPoint" />
            <mxPoint as="offset" />
          </mxGeometry>
        </mxCell>
        <mxCell id="AV-H8MOa8y1JzyoUnfCQ-26" value="&amp;lt;&amp;lt;extend&amp;gt;&amp;gt;" style="html=1;verticalAlign=bottom;labelBackgroundColor=none;endArrow=open;endFill=0;dashed=1;rounded=0;exitX=0;exitY=0.5;exitDx=0;exitDy=0;entryX=0.818;entryY=0.1;entryDx=0;entryDy=0;entryPerimeter=0;fillColor=none;" parent="1" source="AV-H8MOa8y1JzyoUnfCQ-8" target="AV-H8MOa8y1JzyoUnfCQ-4" edge="1">
          <mxGeometry x="-0.5545" y="-20" width="160" relative="1" as="geometry">
            <mxPoint x="390" y="200" as="sourcePoint" />
            <mxPoint x="550" y="200" as="targetPoint" />
            <Array as="points">
              <mxPoint x="460" y="110" />
            </Array>
            <mxPoint as="offset" />
          </mxGeometry>
        </mxCell>
        <mxCell id="AV-H8MOa8y1JzyoUnfCQ-29" value="&amp;lt;&amp;lt;extend&amp;gt;&amp;gt;" style="html=1;verticalAlign=bottom;labelBackgroundColor=none;endArrow=open;endFill=0;dashed=1;rounded=0;exitX=0;exitY=0.5;exitDx=0;exitDy=0;entryX=1;entryY=0.5;entryDx=0;entryDy=0;fillColor=none;" parent="1" source="AV-H8MOa8y1JzyoUnfCQ-10" target="AV-H8MOa8y1JzyoUnfCQ-4" edge="1">
          <mxGeometry x="-0.0365" y="-10" width="160" relative="1" as="geometry">
            <mxPoint x="400" y="220" as="sourcePoint" />
            <mxPoint x="560" y="220" as="targetPoint" />
            <Array as="points">
              <mxPoint x="450" y="160" />
            </Array>
            <mxPoint as="offset" />
          </mxGeometry>
        </mxCell>
        <mxCell id="AV-H8MOa8y1JzyoUnfCQ-30" value="&amp;lt;&amp;lt;extend&amp;gt;&amp;gt;" style="html=1;verticalAlign=bottom;labelBackgroundColor=none;endArrow=open;endFill=0;dashed=1;rounded=0;exitX=0;exitY=0.5;exitDx=0;exitDy=0;entryX=1;entryY=0.5;entryDx=0;entryDy=0;fillColor=none;" parent="1" source="AV-H8MOa8y1JzyoUnfCQ-11" target="AV-H8MOa8y1JzyoUnfCQ-5" edge="1">
          <mxGeometry x="-0.0076" y="-10" width="160" relative="1" as="geometry">
            <mxPoint x="380" y="320" as="sourcePoint" />
            <mxPoint x="540" y="320" as="targetPoint" />
            <Array as="points">
              <mxPoint x="440" y="270" />
            </Array>
            <mxPoint as="offset" />
          </mxGeometry>
        </mxCell>
        <mxCell id="AV-H8MOa8y1JzyoUnfCQ-31" value="&amp;lt;&amp;lt;extend&amp;gt;&amp;gt;" style="html=1;verticalAlign=bottom;labelBackgroundColor=none;endArrow=open;endFill=0;dashed=1;rounded=0;entryX=1;entryY=1;entryDx=0;entryDy=0;exitX=0;exitY=0.5;exitDx=0;exitDy=0;fillColor=none;" parent="1" source="AV-H8MOa8y1JzyoUnfCQ-12" target="AV-H8MOa8y1JzyoUnfCQ-5" edge="1">
          <mxGeometry x="-0.0638" y="-10" width="160" relative="1" as="geometry">
            <mxPoint x="430" y="310" as="sourcePoint" />
            <mxPoint x="590" y="310" as="targetPoint" />
            <Array as="points">
              <mxPoint x="410" y="320" />
            </Array>
            <mxPoint as="offset" />
          </mxGeometry>
        </mxCell>
        <mxCell id="AV-H8MOa8y1JzyoUnfCQ-32" value="&amp;lt;&amp;lt;extend&amp;gt;&amp;gt;" style="html=1;verticalAlign=bottom;labelBackgroundColor=none;endArrow=open;endFill=0;dashed=1;rounded=0;exitX=0;exitY=0.5;exitDx=0;exitDy=0;entryX=0.688;entryY=1.02;entryDx=0;entryDy=0;entryPerimeter=0;fillColor=none;" parent="1" source="AV-H8MOa8y1JzyoUnfCQ-13" target="AV-H8MOa8y1JzyoUnfCQ-5" edge="1">
          <mxGeometry x="-0.1032" y="-10" width="160" relative="1" as="geometry">
            <mxPoint x="410" y="350" as="sourcePoint" />
            <mxPoint x="570" y="350" as="targetPoint" />
            <Array as="points">
              <mxPoint x="400" y="370" />
            </Array>
            <mxPoint as="offset" />
          </mxGeometry>
        </mxCell>
        <mxCell id="AV-H8MOa8y1JzyoUnfCQ-33" value="&amp;lt;&amp;lt;extend&amp;gt;&amp;gt;" style="html=1;verticalAlign=bottom;labelBackgroundColor=none;endArrow=open;endFill=0;dashed=1;rounded=0;entryX=0.548;entryY=1.04;entryDx=0;entryDy=0;entryPerimeter=0;exitX=0;exitY=0.5;exitDx=0;exitDy=0;fillColor=none;" parent="1" source="AV-H8MOa8y1JzyoUnfCQ-14" target="AV-H8MOa8y1JzyoUnfCQ-5" edge="1">
          <mxGeometry x="-0.3202" y="-20" width="160" relative="1" as="geometry">
            <mxPoint x="410" y="410" as="sourcePoint" />
            <mxPoint x="570" y="410" as="targetPoint" />
            <Array as="points">
              <mxPoint x="410" y="420" />
            </Array>
            <mxPoint as="offset" />
          </mxGeometry>
        </mxCell>
        <mxCell id="AV-H8MOa8y1JzyoUnfCQ-34" value="&amp;lt;&amp;lt;extend&amp;gt;&amp;gt;" style="html=1;verticalAlign=bottom;labelBackgroundColor=none;endArrow=open;endFill=0;dashed=1;rounded=0;exitX=0;exitY=0.5;exitDx=0;exitDy=0;entryX=1;entryY=0.5;entryDx=0;entryDy=0;fillColor=none;" parent="1" source="AV-H8MOa8y1JzyoUnfCQ-16" target="AV-H8MOa8y1JzyoUnfCQ-6" edge="1">
          <mxGeometry x="0.0547" y="-10" width="160" relative="1" as="geometry">
            <mxPoint x="410" y="480" as="sourcePoint" />
            <mxPoint x="570" y="480" as="targetPoint" />
            <Array as="points" />
            <mxPoint as="offset" />
          </mxGeometry>
        </mxCell>
        <mxCell id="AV-H8MOa8y1JzyoUnfCQ-36" value="&amp;lt;&amp;lt;extend&amp;gt;&amp;gt;" style="html=1;verticalAlign=bottom;labelBackgroundColor=none;endArrow=open;endFill=0;dashed=1;rounded=0;entryX=1;entryY=1;entryDx=0;entryDy=0;exitX=0;exitY=0.5;exitDx=0;exitDy=0;fillColor=none;" parent="1" source="AV-H8MOa8y1JzyoUnfCQ-18" target="AV-H8MOa8y1JzyoUnfCQ-6" edge="1">
          <mxGeometry x="-0.5065" y="-10" width="160" relative="1" as="geometry">
            <mxPoint x="460" y="580" as="sourcePoint" />
            <mxPoint x="570" y="550" as="targetPoint" />
            <Array as="points">
              <mxPoint x="420" y="550" />
            </Array>
            <mxPoint as="offset" />
          </mxGeometry>
        </mxCell>
        <mxCell id="AV-H8MOa8y1JzyoUnfCQ-37" value="&amp;lt;&amp;lt;extend&amp;gt;&amp;gt;" style="html=1;verticalAlign=bottom;labelBackgroundColor=none;endArrow=open;endFill=0;dashed=1;rounded=0;entryX=0.713;entryY=1;entryDx=0;entryDy=0;entryPerimeter=0;exitX=0;exitY=0.5;exitDx=0;exitDy=0;fillColor=none;" parent="1" source="AV-H8MOa8y1JzyoUnfCQ-19" target="AV-H8MOa8y1JzyoUnfCQ-6" edge="1">
          <mxGeometry x="-0.3773" y="-20" width="160" relative="1" as="geometry">
            <mxPoint x="400" y="670" as="sourcePoint" />
            <mxPoint x="560" y="670" as="targetPoint" />
            <Array as="points">
              <mxPoint x="430" y="600" />
            </Array>
            <mxPoint as="offset" />
          </mxGeometry>
        </mxCell>
        <mxCell id="MPR_dnVbgcJIMktKGhZn-1" value="Xuất dữ liệu tài khoản" style="ellipse;whiteSpace=wrap;html=1;fontStyle=1;fillColor=none;" vertex="1" parent="1">
          <mxGeometry x="560" y="640" width="160" height="40" as="geometry" />
        </mxCell>
        <mxCell id="MPR_dnVbgcJIMktKGhZn-2" value="&amp;lt;&amp;lt;extend&amp;gt;&amp;gt;" style="html=1;verticalAlign=bottom;labelBackgroundColor=none;endArrow=open;endFill=0;dashed=1;rounded=0;entryX=0.5;entryY=1;entryDx=0;entryDy=0;exitX=0;exitY=0.5;exitDx=0;exitDy=0;fillColor=none;" edge="1" parent="1" source="MPR_dnVbgcJIMktKGhZn-1" target="AV-H8MOa8y1JzyoUnfCQ-6">
          <mxGeometry x="-0.3773" y="-20" width="160" relative="1" as="geometry">
            <mxPoint x="560" y="680" as="sourcePoint" />
            <mxPoint x="354" y="570" as="targetPoint" />
            <Array as="points">
              <mxPoint x="430" y="660" />
            </Array>
            <mxPoint as="offset" />
          </mxGeometry>
        </mxCell>
        <mxCell id="MPR_dnVbgcJIMktKGhZn-5" value="Thống kê doanh thu" style="ellipse;whiteSpace=wrap;html=1;fontStyle=1;fillColor=none;" vertex="1" parent="1">
          <mxGeometry x="300" y="40" width="160" height="40" as="geometry" />
        </mxCell>
        <mxCell id="MPR_dnVbgcJIMktKGhZn-6" value="&amp;lt;&amp;lt;include&amp;gt;&amp;gt;" style="html=1;verticalAlign=bottom;labelBackgroundColor=none;endArrow=open;endFill=0;dashed=1;rounded=0;exitX=0;exitY=0.5;exitDx=0;exitDy=0;fillColor=none;" edge="1" parent="1" source="MPR_dnVbgcJIMktKGhZn-5">
          <mxGeometry x="-0.4981" y="20" width="160" relative="1" as="geometry">
            <mxPoint x="240" y="-10" as="sourcePoint" />
            <mxPoint x="130" y="370" as="targetPoint" />
            <Array as="points">
              <mxPoint x="190" y="60" />
            </Array>
            <mxPoint as="offset" />
          </mxGeometry>
        </mxCell>
        <mxCell id="MPR_dnVbgcJIMktKGhZn-12" value="Xuất dữ liệu Top sản phẩm, khách hàng, nhân viên" style="ellipse;whiteSpace=wrap;html=1;fontStyle=1;fillColor=none;" vertex="1" parent="1">
          <mxGeometry x="500" y="690" width="210" height="60" as="geometry" />
        </mxCell>
        <mxCell id="MPR_dnVbgcJIMktKGhZn-13" value="&amp;lt;&amp;lt;extend&amp;gt;&amp;gt;" style="html=1;verticalAlign=bottom;labelBackgroundColor=none;endArrow=open;endFill=0;dashed=1;rounded=0;entryX=1;entryY=1;entryDx=0;entryDy=0;exitX=0;exitY=0.5;exitDx=0;exitDy=0;fillColor=none;" edge="1" parent="1" source="MPR_dnVbgcJIMktKGhZn-12" target="AV-H8MOa8y1JzyoUnfCQ-7">
          <mxGeometry x="-0.2954" y="-20" width="160" relative="1" as="geometry">
            <mxPoint x="510" y="805" as="sourcePoint" />
            <mxPoint x="270" y="655" as="targetPoint" />
            <Array as="points">
              <mxPoint x="390" y="720" />
            </Array>
            <mxPoint as="offset" />
          </mxGeometry>
        </mxCell>
        <mxCell id="MPR_dnVbgcJIMktKGhZn-14" value="Quản lý nhà cung cấp" style="ellipse;whiteSpace=wrap;html=1;fontStyle=1;fillColor=none;" vertex="1" parent="1">
          <mxGeometry x="160" y="690" width="210" height="50" as="geometry" />
        </mxCell>
        <mxCell id="MPR_dnVbgcJIMktKGhZn-15" value="Thêm nhà cung cấp" style="ellipse;whiteSpace=wrap;html=1;fontStyle=1;fillColor=none;" vertex="1" parent="1">
          <mxGeometry x="450" y="760" width="160" height="40" as="geometry" />
        </mxCell>
        <mxCell id="MPR_dnVbgcJIMktKGhZn-16" value="Xóa sản phẩm" style="ellipse;whiteSpace=wrap;html=1;fontStyle=1;fillColor=none;" vertex="1" parent="1">
          <mxGeometry x="460" y="810" width="160" height="40" as="geometry" />
        </mxCell>
        <mxCell id="MPR_dnVbgcJIMktKGhZn-17" value="&amp;lt;&amp;lt;extend&amp;gt;&amp;gt;" style="html=1;verticalAlign=bottom;labelBackgroundColor=none;endArrow=open;endFill=0;dashed=1;rounded=0;entryX=0.933;entryY=0.74;entryDx=0;entryDy=0;exitX=0;exitY=0.5;exitDx=0;exitDy=0;fillColor=none;entryPerimeter=0;" edge="1" parent="1" source="MPR_dnVbgcJIMktKGhZn-15" target="MPR_dnVbgcJIMktKGhZn-14">
          <mxGeometry x="-0.6617" y="-20" width="160" relative="1" as="geometry">
            <mxPoint x="481" y="834.5" as="sourcePoint" />
            <mxPoint x="360" y="745.5" as="targetPoint" />
            <Array as="points">
              <mxPoint x="390" y="780" />
            </Array>
            <mxPoint as="offset" />
          </mxGeometry>
        </mxCell>
        <mxCell id="MPR_dnVbgcJIMktKGhZn-18" value="&amp;lt;&amp;lt;extend&amp;gt;&amp;gt;" style="html=1;verticalAlign=bottom;labelBackgroundColor=none;endArrow=open;endFill=0;dashed=1;rounded=0;exitX=0;exitY=0.5;exitDx=0;exitDy=0;fillColor=none;entryX=1;entryY=1;entryDx=0;entryDy=0;" edge="1" parent="1" source="MPR_dnVbgcJIMktKGhZn-16" target="MPR_dnVbgcJIMktKGhZn-14">
          <mxGeometry x="-0.6765" y="-10" width="160" relative="1" as="geometry">
            <mxPoint x="400" y="804.5" as="sourcePoint" />
            <mxPoint x="307" y="769" as="targetPoint" />
            <Array as="points">
              <mxPoint x="380" y="830" />
            </Array>
            <mxPoint as="offset" />
          </mxGeometry>
        </mxCell>
        <mxCell id="MPR_dnVbgcJIMktKGhZn-20" value="Xuất dữ liệu sản phẩm" style="ellipse;whiteSpace=wrap;html=1;fontStyle=1;fillColor=none;" vertex="1" parent="1">
          <mxGeometry x="560" y="200" width="160" height="40" as="geometry" />
        </mxCell>
        <mxCell id="MPR_dnVbgcJIMktKGhZn-21" value="&amp;lt;&amp;lt;extend&amp;gt;&amp;gt;" style="html=1;verticalAlign=bottom;labelBackgroundColor=none;endArrow=open;endFill=0;dashed=1;rounded=0;exitX=0;exitY=0.5;exitDx=0;exitDy=0;fillColor=none;" edge="1" parent="1" source="MPR_dnVbgcJIMktKGhZn-20" target="AV-H8MOa8y1JzyoUnfCQ-5">
          <mxGeometry x="-0.0365" y="-10" width="160" relative="1" as="geometry">
            <mxPoint x="570" y="170" as="sourcePoint" />
            <mxPoint x="410" y="210" as="targetPoint" />
            <Array as="points">
              <mxPoint x="450" y="220" />
            </Array>
            <mxPoint as="offset" />
          </mxGeometry>
        </mxCell>
        <mxCell id="MPR_dnVbgcJIMktKGhZn-22" value="&amp;lt;&amp;lt;include&amp;gt;&amp;gt;" style="html=1;verticalAlign=bottom;labelBackgroundColor=none;endArrow=open;endFill=0;dashed=1;rounded=0;exitX=0;exitY=0.5;exitDx=0;exitDy=0;fillColor=none;" edge="1" parent="1" source="MPR_dnVbgcJIMktKGhZn-14">
          <mxGeometry x="-0.4981" y="20" width="160" relative="1" as="geometry">
            <mxPoint x="145" y="609" as="sourcePoint" />
            <mxPoint x="100" y="422" as="targetPoint" />
            <Array as="points">
              <mxPoint x="140" y="715" />
            </Array>
            <mxPoint as="offset" />
          </mxGeometry>
        </mxCell>
        <mxCell id="MPR_dnVbgcJIMktKGhZn-23" value="&amp;lt;&amp;lt;include&amp;gt;&amp;gt;" style="html=1;verticalAlign=bottom;labelBackgroundColor=none;endArrow=open;endFill=0;dashed=1;rounded=0;exitX=0;exitY=0.5;exitDx=0;exitDy=0;entryX=0;entryY=1;entryDx=0;entryDy=0;fillColor=none;" edge="1" parent="1">
          <mxGeometry x="-0.4981" y="20" width="160" relative="1" as="geometry">
            <mxPoint x="190" y="640" as="sourcePoint" />
            <mxPoint x="135" y="451" as="targetPoint" />
            <Array as="points">
              <mxPoint x="170" y="640" />
            </Array>
            <mxPoint as="offset" />
          </mxGeometry>
        </mxCell>
        <mxCell id="MPR_dnVbgcJIMktKGhZn-24" value="Xuất dữ liệu tài khoản" style="ellipse;whiteSpace=wrap;html=1;fontStyle=1;fillColor=none;" vertex="1" parent="1">
          <mxGeometry x="290" y="850" width="160" height="40" as="geometry" />
        </mxCell>
        <mxCell id="MPR_dnVbgcJIMktKGhZn-25" value="Xem danh sách nhà cung cấp" style="ellipse;whiteSpace=wrap;html=1;fontStyle=1;fillColor=none;" vertex="1" parent="1">
          <mxGeometry x="120" y="790" width="200" height="40" as="geometry" />
        </mxCell>
        <mxCell id="MPR_dnVbgcJIMktKGhZn-26" value="&amp;lt;&amp;lt;extend&amp;gt;&amp;gt;" style="html=1;verticalAlign=bottom;labelBackgroundColor=none;endArrow=open;endFill=0;dashed=1;rounded=0;exitX=0.5;exitY=0;exitDx=0;exitDy=0;fillColor=none;" edge="1" parent="1" source="MPR_dnVbgcJIMktKGhZn-25" target="MPR_dnVbgcJIMktKGhZn-14">
          <mxGeometry x="-0.6617" y="-20" width="160" relative="1" as="geometry">
            <mxPoint x="385.5" y="837" as="sourcePoint" />
            <mxPoint x="264.5" y="740" as="targetPoint" />
            <Array as="points" />
            <mxPoint as="offset" />
          </mxGeometry>
        </mxCell>
        <mxCell id="MPR_dnVbgcJIMktKGhZn-27" value="&amp;lt;&amp;lt;extend&amp;gt;&amp;gt;" style="html=1;verticalAlign=bottom;labelBackgroundColor=none;endArrow=open;endFill=0;dashed=1;rounded=0;exitX=0;exitY=0;exitDx=0;exitDy=0;fillColor=none;entryX=0.646;entryY=0.957;entryDx=0;entryDy=0;entryPerimeter=0;" edge="1" parent="1" source="MPR_dnVbgcJIMktKGhZn-24" target="MPR_dnVbgcJIMktKGhZn-14">
          <mxGeometry x="-0.8272" y="-13" width="160" relative="1" as="geometry">
            <mxPoint x="411" y="847" as="sourcePoint" />
            <mxPoint x="290" y="750" as="targetPoint" />
            <Array as="points" />
            <mxPoint as="offset" />
          </mxGeometry>
        </mxCell>
      </root>
    </mxGraphModel>
  </diagram>
</mxfile>
